{
	"asset":{
		"generator":"Khronos glTF Blender I/O v5.0.21",
		"version":"2.0"
	},
	"extensionsUsed":[
		"KHR_materials_emissive_strength"
	],
	"scene":0,
	"scenes":[
		{
			"name":"Scene",
			"nodes":[
				20
			]
		}
	],
	"nodes":[
		{
			"name":"Head",
			"translation":[
				0,
				0.22049999237060547,
				0
			]
		},
		{
			"name":"Hand.L",
			"rotation":[
				0,
				0,
				-5.048709793414476e-29,
				1
			],
			"translation":[
				-1.4901161193847656e-08,
				0.24500006437301636,
				0
			]
		},
		{
			"children":[
				1
			],
			"name":"Forearm.L",
			"rotation":[
				0,
				-1.5893254712295857e-08,
				-5.048709793414476e-29,
				1
			],
			"translation":[
				-1.4901161193847656e-08,
				0.3009999990463257,
				0
			]
		},
		{
			"children":[
				2
			],
			"name":"UpperArm.L",
			"rotation":[
				-0.5,
				-0.5,
				0.5,
				0.5
			],
			"scale":[
				1,
				0.9999998211860657,
				0.9999998807907104
			],
			"translation":[
				0,
				0.12425000965595245,
				0
			]
		},
		{
			"children":[
				3
			],
			"name":"Shoulder.L",
			"rotation":[
				-0.5,
				-0.5,
				-0.5,
				0.5
			],
			"scale":[
				1,
				0.9999999403953552,
				1
			],
			"translation":[
				0.061250001192092896,
				0.19599997997283936,
				0
			]
		},
		{
			"name":"Hand.R",
			"rotation":[
				0,
				0,
				5.048709793414476e-29,
				1
			],
			"translation":[
				1.4901161193847656e-08,
				0.24500006437301636,
				0
			]
		},
		{
			"children":[
				5
			],
			"name":"Forearm.R",
			"rotation":[
				0,
				1.5893254712295857e-08,
				5.048709793414476e-29,
				1
			],
			"translation":[
				1.4901161193847656e-08,
				0.3009999990463257,
				0
			]
		},
		{
			"children":[
				6
			],
			"name":"UpperArm.R",
			"rotation":[
				-0.5,
				0.5,
				-0.5,
				0.5
			],
			"scale":[
				1,
				0.9999998211860657,
				0.9999998807907104
			],
			"translation":[
				0,
				0.12425000965595245,
				0
			]
		},
		{
			"children":[
				7
			],
			"name":"Shoulder.R",
			"rotation":[
				-0.5,
				0.5,
				0.5,
				0.5
			],
			"scale":[
				1,
				0.9999999403953552,
				1
			],
			"translation":[
				-0.061250001192092896,
				0.19599997997283936,
				0
			]
		},
		{
			"children":[
				0,
				4,
				8
			],
			"name":"Chest",
			"translation":[
				0,
				0.19249999523162842,
				0
			]
		},
		{
			"children":[
				9
			],
			"name":"Spine",
			"scale":[
				1,
				0.9999999403953552,
				1
			],
			"translation":[
				0,
				0.10850000381469727,
				0
			]
		},
		{
			"name":"Foot.L",
			"rotation":[
				-0.5847102999687195,
				2.8821075300639043e-15,
				2.0773108219332556e-15,
				0.8112422227859497
			],
			"scale":[
				1,
				0.9999999403953552,
				1
			],
			"translation":[
				0,
				0.39899998903274536,
				0
			]
		},
		{
			"children":[
				11
			],
			"name":"Shin.L",
			"rotation":[
				0,
				4.371138473402425e-08,
				0,
				1
			],
			"scale":[
				1,
				0.9999999403953552,
				1
			],
			"translation":[
				0,
				0.4375,
				0
			]
		},
		{
			"children":[
				12
			],
			"name":"Thigh.L",
			"rotation":[
				1,
				0,
				-4.371138828673793e-08,
				0
			],
			"translation":[
				0.09799999743700027,
				0,
				0
			]
		},
		{
			"name":"Foot.R",
			"rotation":[
				-0.5847102999687195,
				2.8821075300639043e-15,
				2.0773108219332556e-15,
				0.8112422227859497
			],
			"scale":[
				1,
				0.9999999403953552,
				1
			],
			"translation":[
				0,
				0.39899998903274536,
				0
			]
		},
		{
			"children":[
				14
			],
			"name":"Shin.R",
			"rotation":[
				0,
				4.371138473402425e-08,
				0,
				1
			],
			"scale":[
				1,
				0.9999999403953552,
				1
			],
			"translation":[
				0,
				0.4375,
				0
			]
		},
		{
			"children":[
				15
			],
			"name":"Thigh.R",
			"rotation":[
				1,
				0,
				-4.371138828673793e-08,
				0
			],
			"translation":[
				-0.09799999743700027,
				0,
				0
			]
		},
		{
			"children":[
				10,
				13,
				16
			],
			"name":"Hips",
			"translation":[
				0,
				0.9240000247955322,
				0
			]
		},
		{
			"children":[
				17
			],
			"name":"Root"
		},
		{
			"mesh":0,
			"name":"Watchman",
			"skin":0
		},
		{
			"children":[
				19,
				18
			],
			"name":"Watchman_Rig"
		}
	],
	"materials":[
		{
			"doubleSided":true,
			"emissiveFactor":[
				1,
				1,
				1
			],
			"emissiveTexture":{
				"index":0
			},
			"extensions":{
				"KHR_materials_emissive_strength":{
					"emissiveStrength":9
				}
			},
			"name":"Watchman",
			"pbrMetallicRoughness":{
				"baseColorTexture":{
					"index":1
				},
				"metallicRoughnessTexture":{
					"index":2
				}
			}
		}
	],
	"meshes":[
		{
			"name":"Watchman",
			"primitives":[
				{
					"attributes":{
						"POSITION":0,
						"NORMAL":1,
						"TEXCOORD_0":2,
						"JOINTS_0":3,
						"WEIGHTS_0":4
					},
					"indices":5,
					"material":0
				}
			]
		}
	],
	"textures":[
		{
			"sampler":0,
			"source":0
		},
		{
			"sampler":0,
			"source":1
		},
		{
			"sampler":0,
			"source":2
		}
	],
	"images":[
		{
			"mimeType":"image/png",
			"name":"Watchman_Emission",
			"uri":"Watchman_Emission.png"
		},
		{
			"mimeType":"image/png",
			"name":"Watchman_BaseMap",
			"uri":"Watchman_BaseMap.png"
		},
		{
			"mimeType":"image/png",
			"name":"Watchman_ORM",
			"uri":"Watchman_ORM.png"
		}
	],
	"skins":[
		{
			"inverseBindMatrices":6,
			"joints":[
				18,
				17,
				10,
				9,
				0,
				4,
				3,
				2,
				1,
				8,
				7,
				6,
				5,
				13,
				12,
				11,
				16,
				15,
				14
			],
			"name":"Watchman_Rig"
		}
	],
	"accessors":[
		{
			"bufferView":0,
			"componentType":5126,
			"count":4785,
			"max":[
				0.24936632812023163,
				1.7032203674316406,
				0.20189237594604492
			],
			"min":[
				-0.26774999499320984,
				0,
				-0.20189237594604492
			],
			"type":"VEC3"
		},
		{
			"bufferView":1,
			"componentType":5126,
			"count":4785,
			"type":"VEC3"
		},
		{
			"bufferView":2,
			"componentType":5126,
			"count":4785,
			"type":"VEC2"
		},
		{
			"bufferView":3,
			"componentType":5121,
			"count":4785,
			"type":"VEC4"
		},
		{
			"bufferView":4,
			"componentType":5126,
			"count":4785,
			"type":"VEC4"
		},
		{
			"bufferView":5,
			"componentType":5123,
			"count":10506,
			"type":"SCALAR"
		},
		{
			"bufferView":6,
			"componentType":5126,
			"count":19,
			"type":"MAT4"
		}
	],
	"bufferViews":[
		{
			"buffer":0,
			"byteLength":57420,
			"byteOffset":0,
			"target":34962
		},
		{
			"buffer":0,
			"byteLength":57420,
			"byteOffset":57420,
			"target":34962
		},
		{
			"buffer":0,
			"byteLength":38280,
			"byteOffset":114840,
			"target":34962
		},
		{
			"buffer":0,
			"byteLength":19140,
			"byteOffset":153120,
			"target":34962
		},
		{
			"buffer":0,
			"byteLength":76560,
			"byteOffset":172260,
			"target":34962
		},
		{
			"buffer":0,
			"byteLength":21012,
			"byteOffset":248820,
			"target":34963
		},
		{
			"buffer":0,
			"byteLength":1216,
			"byteOffset":269832
		}
	],
	"samplers":[
		{
			"magFilter":9729,
			"minFilter":9987
		}
	],
	"buffers":[
		{
			"byteLength":271048,
			"uri":"Watchman.bin"
		}
	]
}
