{
	"asset":{
		"generator":"Khronos glTF Blender I/O v5.0.21",
		"version":"2.0"
	},
	"extensionsUsed":[
		"KHR_materials_emissive_strength"
	],
	"scene":0,
	"scenes":[
		{
			"name":"Scene",
			"nodes":[
				7
			]
		}
	],
	"nodes":[
		{
			"name":"Ring_A",
			"translation":[
				0,
				0.18000000715255737,
				0
			]
		},
		{
			"name":"Ring_B",
			"rotation":[
				-0.5,
				-0.5,
				-0.5,
				0.5
			],
			"scale":[
				1,
				0.9999999403953552,
				1
			],
			"translation":[
				0,
				0.18000000715255737,
				0
			]
		},
		{
			"name":"Ring_C",
			"rotation":[
				-0.7071067690849304,
				0,
				0,
				0.7071067690849304
			],
			"translation":[
				0,
				0.18000000715255737,
				0
			]
		},
		{
			"name":"Tail",
			"rotation":[
				-0.9932472109794617,
				0,
				0,
				0.11601667106151581
			],
			"scale":[
				1,
				1,
				0.9999995231628418
			],
			"translation":[
				0,
				0,
				-0.05000000074505806
			]
		},
		{
			"children":[
				0,
				1,
				2,
				3
			],
			"name":"Core",
			"translation":[
				0,
				0.4399999976158142,
				0
			]
		},
		{
			"children":[
				4
			],
			"name":"Root"
		},
		{
			"mesh":0,
			"name":"SigilWisp",
			"skin":0
		},
		{
			"children":[
				6,
				5
			],
			"name":"SigilWisp_Rig"
		}
	],
	"materials":[
		{
			"doubleSided":true,
			"emissiveFactor":[
				1,
				1,
				1
			],
			"emissiveTexture":{
				"index":0
			},
			"extensions":{
				"KHR_materials_emissive_strength":{
					"emissiveStrength":4
				}
			},
			"name":"SigilWisp",
			"pbrMetallicRoughness":{
				"baseColorTexture":{
					"index":1
				},
				"metallicRoughnessTexture":{
					"index":2
				}
			}
		}
	],
	"meshes":[
		{
			"name":"SigilWisp",
			"primitives":[
				{
					"attributes":{
						"POSITION":0,
						"NORMAL":1,
						"TEXCOORD_0":2,
						"JOINTS_0":3,
						"WEIGHTS_0":4
					},
					"indices":5,
					"material":0
				}
			]
		}
	],
	"textures":[
		{
			"sampler":0,
			"source":0
		},
		{
			"sampler":0,
			"source":1
		},
		{
			"sampler":0,
			"source":2
		}
	],
	"images":[
		{
			"mimeType":"image/png",
			"name":"SigilWisp_Emission",
			"uri":"SigilWisp_Emission.png"
		},
		{
			"mimeType":"image/png",
			"name":"SigilWisp_BaseMap",
			"uri":"SigilWisp_BaseMap.png"
		},
		{
			"mimeType":"image/png",
			"name":"SigilWisp_ORM",
			"uri":"SigilWisp_ORM.png"
		}
	],
	"skins":[
		{
			"inverseBindMatrices":6,
			"joints":[
				5,
				4,
				0,
				1,
				2,
				3
			],
			"name":"SigilWisp_Rig"
		}
	],
	"accessors":[
		{
			"bufferView":0,
			"componentType":5126,
			"count":2528,
			"max":[
				0.36755287647247314,
				1.0290030241012573,
				0.36755287647247314
			],
			"min":[
				-0.36755287647247314,
				0.058777451515197754,
				-0.36755287647247314
			],
			"type":"VEC3"
		},
		{
			"bufferView":1,
			"componentType":5126,
			"count":2528,
			"type":"VEC3"
		},
		{
			"bufferView":2,
			"componentType":5126,
			"count":2528,
			"type":"VEC2"
		},
		{
			"bufferView":3,
			"componentType":5121,
			"count":2528,
			"type":"VEC4"
		},
		{
			"bufferView":4,
			"componentType":5126,
			"count":2528,
			"type":"VEC4"
		},
		{
			"bufferView":5,
			"componentType":5123,
			"count":8004,
			"type":"SCALAR"
		},
		{
			"bufferView":6,
			"componentType":5126,
			"count":6,
			"type":"MAT4"
		}
	],
	"bufferViews":[
		{
			"buffer":0,
			"byteLength":30336,
			"byteOffset":0,
			"target":34962
		},
		{
			"buffer":0,
			"byteLength":30336,
			"byteOffset":30336,
			"target":34962
		},
		{
			"buffer":0,
			"byteLength":20224,
			"byteOffset":60672,
			"target":34962
		},
		{
			"buffer":0,
			"byteLength":10112,
			"byteOffset":80896,
			"target":34962
		},
		{
			"buffer":0,
			"byteLength":40448,
			"byteOffset":91008,
			"target":34962
		},
		{
			"buffer":0,
			"byteLength":16008,
			"byteOffset":131456,
			"target":34963
		},
		{
			"buffer":0,
			"byteLength":384,
			"byteOffset":147464
		}
	],
	"samplers":[
		{
			"magFilter":9729,
			"minFilter":9987
		}
	],
	"buffers":[
		{
			"byteLength":147848,
			"uri":"SigilWisp.bin"
		}
	]
}
