{
	"asset":{
		"generator":"Khronos glTF Blender I/O v5.0.21",
		"version":"2.0"
	},
	"extensionsUsed":[
		"KHR_materials_emissive_strength"
	],
	"scene":0,
	"scenes":[
		{
			"name":"Scene",
			"nodes":[
				20
			]
		}
	],
	"nodes":[
		{
			"name":"Head",
			"translation":[
				0,
				0.2331000566482544,
				0
			]
		},
		{
			"name":"Hand.L",
			"rotation":[
				0,
				-1.7763568394002505e-15,
				-3.1554436208840472e-30,
				1
			],
			"translation":[
				1.4901161193847656e-08,
				0.2590000033378601,
				0
			]
		},
		{
			"children":[
				1
			],
			"name":"Forearm.L",
			"rotation":[
				-1.2818989709841442e-30,
				-1.5893254712295857e-08,
				0,
				1
			],
			"translation":[
				1.4901161193847656e-08,
				0.3181999921798706,
				4.440892098500626e-16
			]
		},
		{
			"children":[
				2
			],
			"name":"UpperArm.L",
			"rotation":[
				-0.5,
				-0.5,
				0.5,
				0.5
			],
			"translation":[
				0,
				0.13135001063346863,
				0
			]
		},
		{
			"children":[
				3
			],
			"name":"Shoulder.L",
			"rotation":[
				-0.5,
				-0.5,
				-0.5,
				0.5
			],
			"scale":[
				1,
				0.9999999403953552,
				1
			],
			"translation":[
				0.06475000083446503,
				0.2072000503540039,
				0
			]
		},
		{
			"name":"Hand.R",
			"rotation":[
				0,
				1.7763568394002505e-15,
				3.1554436208840472e-30,
				1
			],
			"translation":[
				-1.4901161193847656e-08,
				0.2590000033378601,
				0
			]
		},
		{
			"children":[
				5
			],
			"name":"Forearm.R",
			"rotation":[
				-1.2818989709841442e-30,
				1.5893254712295857e-08,
				0,
				1
			],
			"translation":[
				-1.4901161193847656e-08,
				0.3181999921798706,
				4.440892098500626e-16
			]
		},
		{
			"children":[
				6
			],
			"name":"UpperArm.R",
			"rotation":[
				-0.5,
				0.5,
				-0.5,
				0.5
			],
			"translation":[
				0,
				0.13135001063346863,
				0
			]
		},
		{
			"children":[
				7
			],
			"name":"Shoulder.R",
			"rotation":[
				-0.5,
				0.5,
				0.5,
				0.5
			],
			"scale":[
				1,
				0.9999999403953552,
				1
			],
			"translation":[
				-0.06475000083446503,
				0.2072000503540039,
				0
			]
		},
		{
			"children":[
				0,
				4,
				8
			],
			"name":"Chest",
			"translation":[
				0,
				0.2034999132156372,
				0
			]
		},
		{
			"children":[
				9
			],
			"name":"Spine",
			"translation":[
				0,
				0.11470001935958862,
				0
			]
		},
		{
			"name":"Foot.L",
			"rotation":[
				-0.5847102999687195,
				0,
				0,
				0.8112422227859497
			],
			"scale":[
				1,
				0.9999999403953552,
				1
			],
			"translation":[
				0,
				0.42179998755455017,
				0
			]
		},
		{
			"children":[
				11
			],
			"name":"Shin.L",
			"rotation":[
				0,
				4.371138828673793e-08,
				0,
				1
			],
			"translation":[
				0,
				0.46250003576278687,
				0
			]
		},
		{
			"children":[
				12
			],
			"name":"Thigh.L",
			"rotation":[
				1,
				0,
				-4.371138828673793e-08,
				0
			],
			"translation":[
				0.10360000282526016,
				0,
				0
			]
		},
		{
			"name":"Foot.R",
			"rotation":[
				-0.5847102999687195,
				0,
				0,
				0.8112422227859497
			],
			"scale":[
				1,
				0.9999999403953552,
				1
			],
			"translation":[
				0,
				0.42179998755455017,
				0
			]
		},
		{
			"children":[
				14
			],
			"name":"Shin.R",
			"rotation":[
				0,
				4.371138828673793e-08,
				0,
				1
			],
			"translation":[
				0,
				0.46250003576278687,
				0
			]
		},
		{
			"children":[
				15
			],
			"name":"Thigh.R",
			"rotation":[
				1,
				0,
				-4.371138828673793e-08,
				0
			],
			"translation":[
				-0.10360000282526016,
				0,
				0
			]
		},
		{
			"children":[
				10,
				13,
				16
			],
			"name":"Hips",
			"translation":[
				0,
				0.9768000245094299,
				0
			]
		},
		{
			"children":[
				17
			],
			"name":"Root"
		},
		{
			"mesh":0,
			"name":"Sergeant",
			"skin":0
		},
		{
			"children":[
				19,
				18
			],
			"name":"Sergeant_Rig"
		}
	],
	"materials":[
		{
			"doubleSided":true,
			"emissiveFactor":[
				1,
				1,
				1
			],
			"emissiveTexture":{
				"index":0
			},
			"extensions":{
				"KHR_materials_emissive_strength":{
					"emissiveStrength":9
				}
			},
			"name":"Sergeant",
			"pbrMetallicRoughness":{
				"baseColorTexture":{
					"index":1
				},
				"metallicRoughnessTexture":{
					"index":2
				}
			}
		}
	],
	"meshes":[
		{
			"name":"Sergeant",
			"primitives":[
				{
					"attributes":{
						"POSITION":0,
						"NORMAL":1,
						"TEXCOORD_0":2,
						"JOINTS_0":3,
						"WEIGHTS_0":4
					},
					"indices":5,
					"material":0
				}
			]
		}
	],
	"textures":[
		{
			"sampler":0,
			"source":0
		},
		{
			"sampler":0,
			"source":1
		},
		{
			"sampler":0,
			"source":2
		}
	],
	"images":[
		{
			"mimeType":"image/png",
			"name":"Sergeant_Emission",
			"uri":"Sergeant_Emission.png"
		},
		{
			"mimeType":"image/png",
			"name":"Sergeant_BaseMap",
			"uri":"Sergeant_BaseMap.png"
		},
		{
			"mimeType":"image/png",
			"name":"Sergeant_ORM",
			"uri":"Sergeant_ORM.png"
		}
	],
	"skins":[
		{
			"inverseBindMatrices":6,
			"joints":[
				18,
				17,
				10,
				9,
				0,
				4,
				3,
				2,
				1,
				8,
				7,
				6,
				5,
				13,
				12,
				11,
				16,
				15,
				14
			],
			"name":"Sergeant_Rig"
		}
	],
	"accessors":[
		{
			"bufferView":0,
			"componentType":5126,
			"count":5240,
			"max":[
				0.3496500253677368,
				1.8130000829696655,
				0.19887499511241913
			],
			"min":[
				-0.33133500814437866,
				0,
				-0.22261247038841248
			],
			"type":"VEC3"
		},
		{
			"bufferView":1,
			"componentType":5126,
			"count":5240,
			"type":"VEC3"
		},
		{
			"bufferView":2,
			"componentType":5126,
			"count":5240,
			"type":"VEC2"
		},
		{
			"bufferView":3,
			"componentType":5121,
			"count":5240,
			"type":"VEC4"
		},
		{
			"bufferView":4,
			"componentType":5126,
			"count":5240,
			"type":"VEC4"
		},
		{
			"bufferView":5,
			"componentType":5123,
			"count":12066,
			"type":"SCALAR"
		},
		{
			"bufferView":6,
			"componentType":5126,
			"count":19,
			"type":"MAT4"
		}
	],
	"bufferViews":[
		{
			"buffer":0,
			"byteLength":62880,
			"byteOffset":0,
			"target":34962
		},
		{
			"buffer":0,
			"byteLength":62880,
			"byteOffset":62880,
			"target":34962
		},
		{
			"buffer":0,
			"byteLength":41920,
			"byteOffset":125760,
			"target":34962
		},
		{
			"buffer":0,
			"byteLength":20960,
			"byteOffset":167680,
			"target":34962
		},
		{
			"buffer":0,
			"byteLength":83840,
			"byteOffset":188640,
			"target":34962
		},
		{
			"buffer":0,
			"byteLength":24132,
			"byteOffset":272480,
			"target":34963
		},
		{
			"buffer":0,
			"byteLength":1216,
			"byteOffset":296612
		}
	],
	"samplers":[
		{
			"magFilter":9729,
			"minFilter":9987
		}
	],
	"buffers":[
		{
			"byteLength":297828,
			"uri":"Sergeant.bin"
		}
	]
}
