{
	"asset":{
		"generator":"Khronos glTF Blender I/O v5.0.21",
		"version":"2.0"
	},
	"extensionsUsed":[
		"KHR_materials_emissive_strength"
	],
	"scene":0,
	"scenes":[
		{
			"name":"Scene",
			"nodes":[
				20
			]
		}
	],
	"nodes":[
		{
			"name":"Head",
			"scale":[
				1,
				0.9999999403953552,
				1
			],
			"translation":[
				0,
				0.5800001621246338,
				0
			]
		},
		{
			"name":"Hand.L",
			"rotation":[
				-0.0027611381374299526,
				-0.038057222962379456,
				0.03798465058207512,
				0.9985495805740356
			],
			"scale":[
				1,
				1,
				0.9999999403953552
			],
			"translation":[
				8.962926756339584e-08,
				0.5433231592178345,
				1.1037791125545482e-08
			]
		},
		{
			"children":[
				1
			],
			"name":"Forearm.L",
			"rotation":[
				0.0027155536226928234,
				0.03678527846932411,
				-0.03670989349484444,
				0.9986450672149658
			],
			"scale":[
				1,
				1,
				0.9999999403953552
			],
			"translation":[
				-7.3760748620088634e-09,
				0.540370523929596,
				-1.5459962199315669e-09
			]
		},
		{
			"children":[
				2
			],
			"name":"UpperArm.L",
			"rotation":[
				-0.48115164041519165,
				-0.498630166053772,
				0.4811515212059021,
				0.5369863510131836
			],
			"scale":[
				0.9999999403953552,
				0.9999998211860657,
				0.9999998211860657
			],
			"translation":[
				-0.004383558873087168,
				0.5847842693328857,
				-0.11835633963346481
			]
		},
		{
			"children":[
				3
			],
			"name":"Shoulder.L",
			"rotation":[
				-0.5185058116912842,
				-0.49965742230415344,
				-0.49965742230415344,
				0.4814942181110382
			],
			"scale":[
				0.9999999403953552,
				0.9999998211860657,
				0.9999999403953552
			],
			"translation":[
				0.25999999046325684,
				0.440000057220459,
				0
			]
		},
		{
			"name":"Hand.R",
			"rotation":[
				-0.19405008852481842,
				0.006212793756276369,
				0.0015442355070263147,
				0.9809707403182983
			],
			"scale":[
				0.9999999403953552,
				0.9999999403953552,
				1
			],
			"translation":[
				-2.995298942209956e-08,
				0.5003997683525085,
				1.5883925286175327e-09
			]
		},
		{
			"children":[
				5
			],
			"name":"Forearm.R",
			"rotation":[
				0.00029955277568660676,
				-0.009989950805902481,
				0.009986012242734432,
				0.9999001622200012
			],
			"scale":[
				1,
				1,
				1.0000001192092896
			],
			"translation":[
				-3.7327410495890945e-08,
				0.5001000761985779,
				-5.820632864583786e-11
			]
		},
		{
			"children":[
				6
			],
			"name":"UpperArm.R",
			"rotation":[
				-0.4749312996864319,
				0.4987770915031433,
				-0.4893782436847687,
				0.5349492430686951
			],
			"scale":[
				1.0000001192092896,
				1.0000001192092896,
				1.0000001192092896
			],
			"translation":[
				0.005935159511864185,
				0.42646723985671997,
				-0.11870346963405609
			]
		},
		{
			"children":[
				7
			],
			"name":"Shoulder.R",
			"rotation":[
				-0.5249687433242798,
				0.49937620759010315,
				0.49937620759010315,
				0.4750312864780426
			],
			"scale":[
				1.0000001192092896,
				1.0000001192092896,
				1
			],
			"translation":[
				-0.25999999046325684,
				0.440000057220459,
				0
			]
		},
		{
			"children":[
				0,
				4,
				8
			],
			"name":"Chest",
			"translation":[
				0,
				0.24000000953674316,
				0
			]
		},
		{
			"children":[
				9
			],
			"name":"Spine",
			"translation":[
				0,
				0.25999999046325684,
				0
			]
		},
		{
			"name":"Foot.L",
			"rotation":[
				-0.5786404609680176,
				3.6022778093780516e-09,
				-2.4884250215961856e-10,
				0.8155827522277832
			],
			"translation":[
				-1.1894376594767664e-09,
				0.7800001502037048,
				-6.646500860211065e-18
			]
		},
		{
			"children":[
				11
			],
			"name":"Shin.L",
			"rotation":[
				-0.00017303969070781022,
				-0.013153303414583206,
				0.013153327628970146,
				0.999826967716217
			],
			"scale":[
				1.0000001192092896,
				1,
				1
			],
			"translation":[
				-1.4901161193847656e-08,
				0.760263204574585,
				1.1641532182693481e-10
			]
		},
		{
			"children":[
				12
			],
			"name":"Thigh.L",
			"rotation":[
				-0.999826967716217,
				-0.013153331354260445,
				-0.013153303414583206,
				0.000173039676155895
			],
			"scale":[
				1.0000001192092896,
				0.9999997615814209,
				1
			],
			"translation":[
				0.36000001430511475,
				0,
				0
			]
		},
		{
			"name":"Foot.R",
			"rotation":[
				-0.5786404609680176,
				-3.6022778093780516e-09,
				2.4884250215961856e-10,
				0.8155827522277832
			],
			"translation":[
				1.1894376594767664e-09,
				0.7800001502037048,
				-6.646500860211065e-18
			]
		},
		{
			"children":[
				14
			],
			"name":"Shin.R",
			"rotation":[
				-0.00017303969070781022,
				0.013153303414583206,
				-0.013153327628970146,
				0.999826967716217
			],
			"scale":[
				1.0000001192092896,
				1,
				1
			],
			"translation":[
				1.4901161193847656e-08,
				0.760263204574585,
				1.1641532182693481e-10
			]
		},
		{
			"children":[
				15
			],
			"name":"Thigh.R",
			"rotation":[
				-0.999826967716217,
				0.013153331354260445,
				0.013153303414583206,
				0.000173039676155895
			],
			"scale":[
				1.0000001192092896,
				0.9999997615814209,
				1
			],
			"translation":[
				-0.36000001430511475,
				0,
				0
			]
		},
		{
			"children":[
				10,
				13,
				16
			],
			"name":"Hips",
			"translation":[
				0,
				1.7999999523162842,
				0
			]
		},
		{
			"children":[
				17
			],
			"name":"Root"
		},
		{
			"mesh":0,
			"name":"GildedColossus",
			"skin":0
		},
		{
			"children":[
				19,
				18
			],
			"name":"GildedColossus_Rig"
		}
	],
	"materials":[
		{
			"doubleSided":true,
			"emissiveFactor":[
				1,
				1,
				1
			],
			"emissiveTexture":{
				"index":0
			},
			"extensions":{
				"KHR_materials_emissive_strength":{
					"emissiveStrength":4
				}
			},
			"name":"GildedColossus",
			"pbrMetallicRoughness":{
				"baseColorTexture":{
					"index":1
				},
				"metallicRoughnessTexture":{
					"index":2
				}
			}
		}
	],
	"meshes":[
		{
			"name":"GildedColossus",
			"primitives":[
				{
					"attributes":{
						"POSITION":0,
						"NORMAL":1,
						"TEXCOORD_0":2,
						"JOINTS_0":3,
						"WEIGHTS_0":4
					},
					"indices":5,
					"material":0
				}
			]
		}
	],
	"textures":[
		{
			"sampler":0,
			"source":0
		},
		{
			"sampler":0,
			"source":1
		},
		{
			"sampler":0,
			"source":2
		}
	],
	"images":[
		{
			"mimeType":"image/png",
			"name":"GildedColossus_Emission",
			"uri":"GildedColossus_Emission.png"
		},
		{
			"mimeType":"image/png",
			"name":"GildedColossus_BaseMap",
			"uri":"GildedColossus_BaseMap.png"
		},
		{
			"mimeType":"image/png",
			"name":"GildedColossus_ORM",
			"uri":"GildedColossus_ORM.png"
		}
	],
	"skins":[
		{
			"inverseBindMatrices":6,
			"joints":[
				18,
				17,
				10,
				9,
				0,
				4,
				3,
				2,
				1,
				8,
				7,
				6,
				5,
				13,
				12,
				11,
				16,
				15,
				14
			],
			"name":"GildedColossus_Rig"
		}
	],
	"accessors":[
		{
			"bufferView":0,
			"componentType":5126,
			"count":7326,
			"max":[
				1.2899999618530273,
				3.4077775478363037,
				0.4875495433807373
			],
			"min":[
				-0.9384337663650513,
				0,
				-0.5549999475479126
			],
			"type":"VEC3"
		},
		{
			"bufferView":1,
			"componentType":5126,
			"count":7326,
			"type":"VEC3"
		},
		{
			"bufferView":2,
			"componentType":5126,
			"count":7326,
			"type":"VEC2"
		},
		{
			"bufferView":3,
			"componentType":5121,
			"count":7326,
			"type":"VEC4"
		},
		{
			"bufferView":4,
			"componentType":5126,
			"count":7326,
			"type":"VEC4"
		},
		{
			"bufferView":5,
			"componentType":5123,
			"count":19284,
			"type":"SCALAR"
		},
		{
			"bufferView":6,
			"componentType":5126,
			"count":19,
			"type":"MAT4"
		}
	],
	"bufferViews":[
		{
			"buffer":0,
			"byteLength":87912,
			"byteOffset":0,
			"target":34962
		},
		{
			"buffer":0,
			"byteLength":87912,
			"byteOffset":87912,
			"target":34962
		},
		{
			"buffer":0,
			"byteLength":58608,
			"byteOffset":175824,
			"target":34962
		},
		{
			"buffer":0,
			"byteLength":29304,
			"byteOffset":234432,
			"target":34962
		},
		{
			"buffer":0,
			"byteLength":117216,
			"byteOffset":263736,
			"target":34962
		},
		{
			"buffer":0,
			"byteLength":38568,
			"byteOffset":380952,
			"target":34963
		},
		{
			"buffer":0,
			"byteLength":1216,
			"byteOffset":419520
		}
	],
	"samplers":[
		{
			"magFilter":9729,
			"minFilter":9987
		}
	],
	"buffers":[
		{
			"byteLength":420736,
			"uri":"GildedColossus.bin"
		}
	]
}
