{
	"asset":{
		"generator":"Khronos glTF Blender I/O v5.0.21",
		"version":"2.0"
	},
	"extensionsUsed":[
		"KHR_materials_emissive_strength"
	],
	"scene":0,
	"scenes":[
		{
			"name":"Scene",
			"nodes":[
				13
			]
		}
	],
	"nodes":[
		{
			"name":"Head",
			"translation":[
				0,
				0.3200000524520874,
				0
			]
		},
		{
			"name":"Hand.L",
			"rotation":[
				-0.042874645441770554,
				-0.05706245079636574,
				0.04358401894569397,
				0.9964969158172607
			],
			"scale":[
				1,
				1,
				1.0000001192092896
			],
			"translation":[
				-8.847564458847046e-09,
				0.3269558548927307,
				-1.1175870895385742e-08
			]
		},
		{
			"children":[
				1
			],
			"name":"Forearm.L",
			"rotation":[
				-0.09905411303043365,
				-0.059480220079422,
				0.0403343103826046,
				0.9924835562705994
			],
			"scale":[
				0.9999999403953552,
				1,
				0.9999999403953552
			],
			"translation":[
				-2.9802322387695312e-08,
				0.34713125228881836,
				-3.725290298461914e-09
			]
		},
		{
			"children":[
				2
			],
			"name":"UpperArm.L",
			"rotation":[
				-0.989728569984436,
				-0.10082629323005676,
				-0.10082649439573288,
				0.01027147937566042
			],
			"scale":[
				0.9999968409538269,
				0.9999997019767761,
				0.9999999403953552
			],
			"translation":[
				0.2800000011920929,
				0.20000004768371582,
				0
			]
		},
		{
			"name":"Hand.R",
			"rotation":[
				-0.042874645441770554,
				0.05706245079636574,
				-0.04358401894569397,
				0.9964969158172607
			],
			"scale":[
				1,
				1,
				1.0000001192092896
			],
			"translation":[
				8.847564458847046e-09,
				0.3269558548927307,
				-1.1175870895385742e-08
			]
		},
		{
			"children":[
				4
			],
			"name":"Forearm.R",
			"rotation":[
				-0.09905411303043365,
				0.059480220079422,
				-0.0403343103826046,
				0.9924835562705994
			],
			"scale":[
				0.9999999403953552,
				1,
				0.9999999403953552
			],
			"translation":[
				2.9802322387695312e-08,
				0.34713125228881836,
				-3.725290298461914e-09
			]
		},
		{
			"children":[
				5
			],
			"name":"UpperArm.R",
			"rotation":[
				-0.989728569984436,
				0.10082629323005676,
				0.10082649439573288,
				0.01027147937566042
			],
			"scale":[
				0.9999968409538269,
				0.9999997019767761,
				0.9999999403953552
			],
			"translation":[
				-0.2800000011920929,
				0.20000004768371582,
				0
			]
		},
		{
			"children":[
				0,
				3,
				6
			],
			"name":"Chest",
			"translation":[
				0,
				0.20000004768371582,
				0
			]
		},
		{
			"children":[
				7
			],
			"name":"Spine",
			"translation":[
				0,
				0.9999999403953552,
				0
			]
		},
		{
			"children":[
				8
			],
			"name":"Hips",
			"translation":[
				0,
				0.30000001192092896,
				0
			]
		},
		{
			"name":"Sigil",
			"translation":[
				0,
				1.340000033378601,
				0
			]
		},
		{
			"children":[
				9,
				10
			],
			"name":"Root"
		},
		{
			"mesh":0,
			"name":"ArcRevenant",
			"skin":0
		},
		{
			"children":[
				12,
				11
			],
			"name":"ArcRevenant_Rig"
		}
	],
	"materials":[
		{
			"doubleSided":true,
			"emissiveFactor":[
				1,
				1,
				1
			],
			"emissiveTexture":{
				"index":0
			},
			"extensions":{
				"KHR_materials_emissive_strength":{
					"emissiveStrength":4
				}
			},
			"name":"ArcRevenant",
			"pbrMetallicRoughness":{
				"baseColorTexture":{
					"index":1
				},
				"metallicRoughnessTexture":{
					"index":2
				}
			}
		}
	],
	"meshes":[
		{
			"name":"ArcRevenant",
			"primitives":[
				{
					"attributes":{
						"POSITION":0,
						"NORMAL":1,
						"TEXCOORD_0":2,
						"JOINTS_0":3,
						"WEIGHTS_0":4
					},
					"indices":5,
					"material":0
				}
			]
		}
	],
	"textures":[
		{
			"sampler":0,
			"source":0
		},
		{
			"sampler":0,
			"source":1
		},
		{
			"sampler":0,
			"source":2
		}
	],
	"images":[
		{
			"mimeType":"image/png",
			"name":"ArcRevenant_Emission",
			"uri":"ArcRevenant_Emission.png"
		},
		{
			"mimeType":"image/png",
			"name":"ArcRevenant_BaseMap",
			"uri":"ArcRevenant_BaseMap.png"
		},
		{
			"mimeType":"image/png",
			"name":"ArcRevenant_ORM",
			"uri":"ArcRevenant_ORM.png"
		}
	],
	"skins":[
		{
			"inverseBindMatrices":6,
			"joints":[
				11,
				9,
				8,
				7,
				0,
				3,
				2,
				1,
				6,
				5,
				4,
				10
			],
			"name":"ArcRevenant_Rig"
		}
	],
	"accessors":[
		{
			"bufferView":0,
			"componentType":5126,
			"count":5094,
			"max":[
				0.8109108805656433,
				2.3494067192077637,
				0.8109108805656433
			],
			"min":[
				-0.8109108805656433,
				0.14086996018886566,
				-0.8109108805656433
			],
			"type":"VEC3"
		},
		{
			"bufferView":1,
			"componentType":5126,
			"count":5094,
			"type":"VEC3"
		},
		{
			"bufferView":2,
			"componentType":5126,
			"count":5094,
			"type":"VEC2"
		},
		{
			"bufferView":3,
			"componentType":5121,
			"count":5094,
			"type":"VEC4"
		},
		{
			"bufferView":4,
			"componentType":5126,
			"count":5094,
			"type":"VEC4"
		},
		{
			"bufferView":5,
			"componentType":5123,
			"count":15504,
			"type":"SCALAR"
		},
		{
			"bufferView":6,
			"componentType":5126,
			"count":12,
			"type":"MAT4"
		}
	],
	"bufferViews":[
		{
			"buffer":0,
			"byteLength":61128,
			"byteOffset":0,
			"target":34962
		},
		{
			"buffer":0,
			"byteLength":61128,
			"byteOffset":61128,
			"target":34962
		},
		{
			"buffer":0,
			"byteLength":40752,
			"byteOffset":122256,
			"target":34962
		},
		{
			"buffer":0,
			"byteLength":20376,
			"byteOffset":163008,
			"target":34962
		},
		{
			"buffer":0,
			"byteLength":81504,
			"byteOffset":183384,
			"target":34962
		},
		{
			"buffer":0,
			"byteLength":31008,
			"byteOffset":264888,
			"target":34963
		},
		{
			"buffer":0,
			"byteLength":768,
			"byteOffset":295896
		}
	],
	"samplers":[
		{
			"magFilter":9729,
			"minFilter":9987
		}
	],
	"buffers":[
		{
			"byteLength":296664,
			"uri":"ArcRevenant.bin"
		}
	]
}
