{
	"asset":{
		"generator":"Khronos glTF Blender I/O v5.0.21",
		"version":"2.0"
	},
	"extensionsUsed":[
		"KHR_materials_emissive_strength"
	],
	"scene":0,
	"scenes":[
		{
			"name":"Scene",
			"nodes":[
				16
			]
		}
	],
	"nodes":[
		{
			"name":"Head",
			"rotation":[
				0.2680993378162384,
				0,
				0,
				0.9633913040161133
			],
			"scale":[
				1,
				1,
				1.0000001192092896
			],
			"translation":[
				0,
				0.15239432454109192,
				0
			]
		},
		{
			"children":[
				0
			],
			"name":"Neck",
			"rotation":[
				-0.11760949343442917,
				0,
				0,
				0.9930599331855774
			],
			"translation":[
				0,
				0.15220260620117188,
				-2.9802322387695312e-08
			]
		},
		{
			"name":"ForePaw.L",
			"rotation":[
				-0.10977551341056824,
				0,
				0,
				0.993956446647644
			],
			"translation":[
				0,
				0.2924000322818756,
				0
			]
		},
		{
			"children":[
				2
			],
			"name":"ForeLeg.L",
			"rotation":[
				0.764693021774292,
				0,
				0,
				0.6443947553634644
			],
			"scale":[
				1,
				1,
				1.0000001192092896
			],
			"translation":[
				0.1160999983549118,
				0.05475831776857376,
				0.03559724614024162
			]
		},
		{
			"name":"ForePaw.R",
			"rotation":[
				-0.10977551341056824,
				0,
				0,
				0.993956446647644
			],
			"translation":[
				0,
				0.2924000322818756,
				0
			]
		},
		{
			"children":[
				4
			],
			"name":"ForeLeg.R",
			"rotation":[
				0.764693021774292,
				0,
				0,
				0.6443947553634644
			],
			"scale":[
				1,
				1,
				1.0000001192092896
			],
			"translation":[
				-0.1160999983549118,
				0.05475831776857376,
				0.03559724614024162
			]
		},
		{
			"children":[
				1,
				3,
				5
			],
			"name":"Chest",
			"rotation":[
				-0.054463941603899,
				0,
				0,
				0.998515784740448
			],
			"translation":[
				0,
				0.2805277705192566,
				1.862645149230957e-09
			]
		},
		{
			"children":[
				6
			],
			"name":"Spine",
			"rotation":[
				-0.04934262856841087,
				0,
				0,
				0.9987819194793701
			],
			"translation":[
				0,
				0.23016074299812317,
				2.1420419216156006e-08
			]
		},
		{
			"name":"Tail",
			"rotation":[
				-0.9403975009918213,
				0,
				0,
				0.3400772213935852
			],
			"scale":[
				1,
				0.9999999403953552,
				1.0000001192092896
			],
			"translation":[
				0,
				-0.10121549665927887,
				-0.030639413744211197
			]
		},
		{
			"name":"HindPaw.L",
			"rotation":[
				-0.06481490284204483,
				0.011067749932408333,
				-0.008877579122781754,
				0.9977964758872986
			],
			"scale":[
				1,
				1,
				0.9999998807907104
			],
			"translation":[
				-2.7939677238464355e-09,
				0.22453388571739197,
				-6.05359673500061e-09
			]
		},
		{
			"children":[
				9
			],
			"name":"HindLeg.L",
			"rotation":[
				0.6609761714935303,
				-0.014185775071382523,
				0.0002651212562341243,
				0.750272810459137
			],
			"translation":[
				0.1289999932050705,
				0.000642683357000351,
				0.017187990248203278
			]
		},
		{
			"name":"HindPaw.R",
			"rotation":[
				-0.06481490284204483,
				-0.011067749932408333,
				0.008877579122781754,
				0.9977964758872986
			],
			"scale":[
				1,
				1,
				0.9999998807907104
			],
			"translation":[
				2.7939677238464355e-09,
				0.22453388571739197,
				-6.05359673500061e-09
			]
		},
		{
			"children":[
				11
			],
			"name":"HindLeg.R",
			"rotation":[
				0.6609761714935303,
				0.014185775071382523,
				-0.0002651212562341243,
				0.750272810459137
			],
			"translation":[
				-0.1289999932050705,
				0.000642683357000351,
				0.017187990248203278
			]
		},
		{
			"children":[
				7,
				8,
				10,
				12
			],
			"name":"Hips",
			"rotation":[
				0.7201962471008301,
				0,
				0,
				0.6937704086303711
			],
			"translation":[
				0,
				0.5504000186920166,
				-0.33000001311302185
			]
		},
		{
			"children":[
				13
			],
			"name":"Root"
		},
		{
			"mesh":0,
			"name":"WarHound",
			"skin":0
		},
		{
			"children":[
				15,
				14
			],
			"name":"WarHound_Rig"
		}
	],
	"materials":[
		{
			"doubleSided":true,
			"emissiveFactor":[
				1,
				1,
				1
			],
			"emissiveTexture":{
				"index":0
			},
			"extensions":{
				"KHR_materials_emissive_strength":{
					"emissiveStrength":9
				}
			},
			"name":"WarHound",
			"pbrMetallicRoughness":{
				"baseColorTexture":{
					"index":1
				},
				"metallicRoughnessTexture":{
					"index":2
				}
			}
		}
	],
	"meshes":[
		{
			"name":"WarHound",
			"primitives":[
				{
					"attributes":{
						"POSITION":0,
						"NORMAL":1,
						"TEXCOORD_0":2,
						"JOINTS_0":3,
						"WEIGHTS_0":4
					},
					"indices":5,
					"material":0
				}
			]
		}
	],
	"textures":[
		{
			"sampler":0,
			"source":0
		},
		{
			"sampler":0,
			"source":1
		},
		{
			"sampler":0,
			"source":2
		}
	],
	"images":[
		{
			"mimeType":"image/png",
			"name":"WarHound_Emission",
			"uri":"WarHound_Emission.png"
		},
		{
			"mimeType":"image/png",
			"name":"WarHound_BaseMap",
			"uri":"WarHound_BaseMap.png"
		},
		{
			"mimeType":"image/png",
			"name":"WarHound_ORM",
			"uri":"WarHound_ORM.png"
		}
	],
	"skins":[
		{
			"inverseBindMatrices":6,
			"joints":[
				14,
				13,
				7,
				6,
				1,
				0,
				3,
				2,
				5,
				4,
				8,
				10,
				9,
				12,
				11
			],
			"name":"WarHound_Rig"
		}
	],
	"accessors":[
		{
			"bufferView":0,
			"componentType":5126,
			"count":3404,
			"max":[
				0.23266223073005676,
				0.7694692015647888,
				0.6962220072746277
			],
			"min":[
				-0.23266223073005676,
				0,
				-0.6390053629875183
			],
			"type":"VEC3"
		},
		{
			"bufferView":1,
			"componentType":5126,
			"count":3404,
			"type":"VEC3"
		},
		{
			"bufferView":2,
			"componentType":5126,
			"count":3404,
			"type":"VEC2"
		},
		{
			"bufferView":3,
			"componentType":5121,
			"count":3404,
			"type":"VEC4"
		},
		{
			"bufferView":4,
			"componentType":5126,
			"count":3404,
			"type":"VEC4"
		},
		{
			"bufferView":5,
			"componentType":5123,
			"count":7560,
			"type":"SCALAR"
		},
		{
			"bufferView":6,
			"componentType":5126,
			"count":15,
			"type":"MAT4"
		}
	],
	"bufferViews":[
		{
			"buffer":0,
			"byteLength":40848,
			"byteOffset":0,
			"target":34962
		},
		{
			"buffer":0,
			"byteLength":40848,
			"byteOffset":40848,
			"target":34962
		},
		{
			"buffer":0,
			"byteLength":27232,
			"byteOffset":81696,
			"target":34962
		},
		{
			"buffer":0,
			"byteLength":13616,
			"byteOffset":108928,
			"target":34962
		},
		{
			"buffer":0,
			"byteLength":54464,
			"byteOffset":122544,
			"target":34962
		},
		{
			"buffer":0,
			"byteLength":15120,
			"byteOffset":177008,
			"target":34963
		},
		{
			"buffer":0,
			"byteLength":960,
			"byteOffset":192128
		}
	],
	"samplers":[
		{
			"magFilter":9729,
			"minFilter":9987
		}
	],
	"buffers":[
		{
			"byteLength":193088,
			"uri":"WarHound.bin"
		}
	]
}
