{
	"asset":{
		"generator":"Khronos glTF Blender I/O v5.0.21",
		"version":"2.0"
	},
	"extensionsUsed":[
		"KHR_materials_emissive_strength"
	],
	"scene":0,
	"scenes":[
		{
			"name":"Scene",
			"nodes":[
				6
			]
		}
	],
	"nodes":[
		{
			"name":"Barrel",
			"rotation":[
				3.0908619663705394e-08,
				0.7071067690849304,
				0.7071067690849304,
				3.0908619663705394e-08
			],
			"translation":[
				0,
				0.2200000286102295,
				0
			]
		},
		{
			"children":[
				0
			],
			"name":"Head",
			"translation":[
				0,
				0.6799999475479126,
				0
			]
		},
		{
			"children":[
				1
			],
			"name":"Column",
			"translation":[
				0,
				0.1599999964237213,
				0
			]
		},
		{
			"children":[
				2
			],
			"name":"Base"
		},
		{
			"children":[
				3
			],
			"name":"Root"
		},
		{
			"mesh":0,
			"name":"HexTurret",
			"skin":0
		},
		{
			"children":[
				5,
				4
			],
			"name":"HexTurret_Rig"
		}
	],
	"materials":[
		{
			"doubleSided":true,
			"emissiveFactor":[
				1,
				1,
				1
			],
			"emissiveTexture":{
				"index":0
			},
			"extensions":{
				"KHR_materials_emissive_strength":{
					"emissiveStrength":4
				}
			},
			"name":"HexTurret",
			"pbrMetallicRoughness":{
				"baseColorTexture":{
					"index":1
				},
				"metallicRoughnessTexture":{
					"index":2
				}
			}
		}
	],
	"meshes":[
		{
			"name":"HexTurret",
			"primitives":[
				{
					"attributes":{
						"POSITION":0,
						"NORMAL":1,
						"TEXCOORD_0":2,
						"JOINTS_0":3,
						"WEIGHTS_0":4
					},
					"indices":5,
					"material":0
				}
			]
		}
	],
	"textures":[
		{
			"sampler":0,
			"source":0
		},
		{
			"sampler":0,
			"source":1
		},
		{
			"sampler":0,
			"source":2
		}
	],
	"images":[
		{
			"mimeType":"image/png",
			"name":"HexTurret_Emission",
			"uri":"HexTurret_Emission.png"
		},
		{
			"mimeType":"image/png",
			"name":"HexTurret_BaseMap",
			"uri":"HexTurret_BaseMap.png"
		},
		{
			"mimeType":"image/png",
			"name":"HexTurret_ORM",
			"uri":"HexTurret_ORM.png"
		}
	],
	"skins":[
		{
			"inverseBindMatrices":6,
			"joints":[
				4,
				3,
				2,
				1,
				0
			],
			"name":"HexTurret_Rig"
		}
	],
	"accessors":[
		{
			"bufferView":0,
			"componentType":5126,
			"count":4100,
			"max":[
				0.6567177772521973,
				1.457385778427124,
				0.5631511211395264
			],
			"min":[
				-0.656717836856842,
				0,
				-0.7000000476837158
			],
			"type":"VEC3"
		},
		{
			"bufferView":1,
			"componentType":5126,
			"count":4100,
			"type":"VEC3"
		},
		{
			"bufferView":2,
			"componentType":5126,
			"count":4100,
			"type":"VEC2"
		},
		{
			"bufferView":3,
			"componentType":5121,
			"count":4100,
			"type":"VEC4"
		},
		{
			"bufferView":4,
			"componentType":5126,
			"count":4100,
			"type":"VEC4"
		},
		{
			"bufferView":5,
			"componentType":5123,
			"count":12168,
			"type":"SCALAR"
		},
		{
			"bufferView":6,
			"componentType":5126,
			"count":5,
			"type":"MAT4"
		}
	],
	"bufferViews":[
		{
			"buffer":0,
			"byteLength":49200,
			"byteOffset":0,
			"target":34962
		},
		{
			"buffer":0,
			"byteLength":49200,
			"byteOffset":49200,
			"target":34962
		},
		{
			"buffer":0,
			"byteLength":32800,
			"byteOffset":98400,
			"target":34962
		},
		{
			"buffer":0,
			"byteLength":16400,
			"byteOffset":131200,
			"target":34962
		},
		{
			"buffer":0,
			"byteLength":65600,
			"byteOffset":147600,
			"target":34962
		},
		{
			"buffer":0,
			"byteLength":24336,
			"byteOffset":213200,
			"target":34963
		},
		{
			"buffer":0,
			"byteLength":320,
			"byteOffset":237536
		}
	],
	"samplers":[
		{
			"magFilter":9729,
			"minFilter":9987
		}
	],
	"buffers":[
		{
			"byteLength":237856,
			"uri":"HexTurret.bin"
		}
	]
}
