{
	"asset":{
		"generator":"Khronos glTF Blender I/O v5.0.21",
		"version":"2.0"
	},
	"extensionsUsed":[
		"KHR_materials_emissive_strength"
	],
	"scene":0,
	"scenes":[
		{
			"name":"Scene",
			"nodes":[
				20
			]
		}
	],
	"nodes":[
		{
			"name":"Head",
			"translation":[
				0,
				0.21419990062713623,
				0
			]
		},
		{
			"name":"Hand.L",
			"rotation":[
				0,
				-1.7763568394002505e-15,
				-2.6469782757140506e-23,
				1
			],
			"translation":[
				1.4901161193847656e-08,
				0.23799991607666016,
				0
			]
		},
		{
			"children":[
				1
			],
			"name":"Forearm.L",
			"rotation":[
				-1.1832913578315177e-30,
				-1.5893252935939017e-08,
				-2.6469779601696886e-23,
				1
			],
			"translation":[
				1.4901161193847656e-08,
				0.2923997640609741,
				-4.440892098500626e-16
			]
		},
		{
			"children":[
				2
			],
			"name":"UpperArm.L",
			"rotation":[
				-0.5,
				-0.5,
				0.5,
				0.5
			],
			"translation":[
				0,
				0.12069998681545258,
				1.1920928955078125e-07
			]
		},
		{
			"children":[
				3
			],
			"name":"Shoulder.L",
			"rotation":[
				-0.5,
				-0.5,
				-0.5,
				0.5
			],
			"scale":[
				1,
				0.9999999403953552,
				1
			],
			"translation":[
				0.05950000137090683,
				0.1903998851776123,
				0
			]
		},
		{
			"name":"Hand.R",
			"rotation":[
				0,
				1.7763568394002505e-15,
				2.6469782757140506e-23,
				1
			],
			"translation":[
				-1.4901161193847656e-08,
				0.23799991607666016,
				0
			]
		},
		{
			"children":[
				5
			],
			"name":"Forearm.R",
			"rotation":[
				-1.1832913578315177e-30,
				1.5893252935939017e-08,
				2.6469779601696886e-23,
				1
			],
			"translation":[
				-1.4901161193847656e-08,
				0.2923997640609741,
				-4.440892098500626e-16
			]
		},
		{
			"children":[
				6
			],
			"name":"UpperArm.R",
			"rotation":[
				-0.5,
				0.5,
				-0.5,
				0.5
			],
			"translation":[
				0,
				0.12069998681545258,
				1.1920928955078125e-07
			]
		},
		{
			"children":[
				7
			],
			"name":"Shoulder.R",
			"rotation":[
				-0.5,
				0.5,
				0.5,
				0.5
			],
			"scale":[
				1,
				0.9999999403953552,
				1
			],
			"translation":[
				-0.05950000137090683,
				0.1903998851776123,
				0
			]
		},
		{
			"children":[
				0,
				4,
				8
			],
			"name":"Chest",
			"translation":[
				0,
				0.18700003623962402,
				0
			]
		},
		{
			"children":[
				9
			],
			"name":"Spine",
			"scale":[
				1,
				0.9999999403953552,
				1
			],
			"translation":[
				0,
				0.1053999662399292,
				0
			]
		},
		{
			"name":"Foot.L",
			"rotation":[
				-0.5847102999687195,
				0,
				0,
				0.8112422227859497
			],
			"scale":[
				1,
				0.9999999403953552,
				1
			],
			"translation":[
				0,
				0.3876000940799713,
				0
			]
		},
		{
			"children":[
				11
			],
			"name":"Shin.L",
			"rotation":[
				0,
				4.371138473402425e-08,
				0,
				1
			],
			"translation":[
				0,
				0.42500004172325134,
				0
			]
		},
		{
			"children":[
				12
			],
			"name":"Thigh.L",
			"rotation":[
				1,
				0,
				-4.371138473402425e-08,
				0
			],
			"scale":[
				1,
				0.9999997615814209,
				1
			],
			"translation":[
				0.09520000219345093,
				-5.960464477539063e-08,
				0
			]
		},
		{
			"name":"Foot.R",
			"rotation":[
				-0.5847102999687195,
				0,
				0,
				0.8112422227859497
			],
			"scale":[
				1,
				0.9999999403953552,
				1
			],
			"translation":[
				0,
				0.3876000940799713,
				0
			]
		},
		{
			"children":[
				14
			],
			"name":"Shin.R",
			"rotation":[
				0,
				4.371138473402425e-08,
				0,
				1
			],
			"translation":[
				0,
				0.42500004172325134,
				0
			]
		},
		{
			"children":[
				15
			],
			"name":"Thigh.R",
			"rotation":[
				1,
				0,
				-4.371138473402425e-08,
				0
			],
			"scale":[
				1,
				0.9999997615814209,
				1
			],
			"translation":[
				-0.09520000219345093,
				-5.960464477539063e-08,
				0
			]
		},
		{
			"children":[
				10,
				13,
				16
			],
			"name":"Hips",
			"translation":[
				0,
				0.8976000547409058,
				0
			]
		},
		{
			"children":[
				17
			],
			"name":"Root"
		},
		{
			"mesh":0,
			"name":"CryptRisen",
			"skin":0
		},
		{
			"children":[
				19,
				18
			],
			"name":"CryptRisen_Rig"
		}
	],
	"materials":[
		{
			"doubleSided":true,
			"emissiveFactor":[
				1,
				1,
				1
			],
			"emissiveTexture":{
				"index":0
			},
			"extensions":{
				"KHR_materials_emissive_strength":{
					"emissiveStrength":9
				}
			},
			"name":"CryptRisen",
			"pbrMetallicRoughness":{
				"baseColorTexture":{
					"index":1
				},
				"metallicRoughnessTexture":{
					"index":2
				}
			}
		}
	],
	"meshes":[
		{
			"name":"CryptRisen",
			"primitives":[
				{
					"attributes":{
						"POSITION":0,
						"NORMAL":1,
						"TEXCOORD_0":2,
						"JOINTS_0":3,
						"WEIGHTS_0":4
					},
					"indices":5,
					"material":0
				}
			]
		}
	],
	"textures":[
		{
			"sampler":0,
			"source":0
		},
		{
			"sampler":0,
			"source":1
		},
		{
			"sampler":0,
			"source":2
		}
	],
	"images":[
		{
			"mimeType":"image/png",
			"name":"CryptRisen_Emission",
			"uri":"CryptRisen_Emission.png"
		},
		{
			"mimeType":"image/png",
			"name":"CryptRisen_BaseMap",
			"uri":"CryptRisen_BaseMap.png"
		},
		{
			"mimeType":"image/png",
			"name":"CryptRisen_ORM",
			"uri":"CryptRisen_ORM.png"
		}
	],
	"skins":[
		{
			"inverseBindMatrices":6,
			"joints":[
				18,
				17,
				10,
				9,
				0,
				4,
				3,
				2,
				1,
				8,
				7,
				6,
				5,
				13,
				12,
				11,
				16,
				15,
				14
			],
			"name":"CryptRisen_Rig"
		}
	],
	"accessors":[
		{
			"bufferView":0,
			"componentType":5126,
			"count":4878,
			"max":[
				0.2701066732406616,
				1.6473000049591064,
				0.21502046287059784
			],
			"min":[
				-0.23577891290187836,
				0,
				-0.2251211702823639
			],
			"type":"VEC3"
		},
		{
			"bufferView":1,
			"componentType":5126,
			"count":4878,
			"type":"VEC3"
		},
		{
			"bufferView":2,
			"componentType":5126,
			"count":4878,
			"type":"VEC2"
		},
		{
			"bufferView":3,
			"componentType":5121,
			"count":4878,
			"type":"VEC4"
		},
		{
			"bufferView":4,
			"componentType":5126,
			"count":4878,
			"type":"VEC4"
		},
		{
			"bufferView":5,
			"componentType":5123,
			"count":10908,
			"type":"SCALAR"
		},
		{
			"bufferView":6,
			"componentType":5126,
			"count":19,
			"type":"MAT4"
		}
	],
	"bufferViews":[
		{
			"buffer":0,
			"byteLength":58536,
			"byteOffset":0,
			"target":34962
		},
		{
			"buffer":0,
			"byteLength":58536,
			"byteOffset":58536,
			"target":34962
		},
		{
			"buffer":0,
			"byteLength":39024,
			"byteOffset":117072,
			"target":34962
		},
		{
			"buffer":0,
			"byteLength":19512,
			"byteOffset":156096,
			"target":34962
		},
		{
			"buffer":0,
			"byteLength":78048,
			"byteOffset":175608,
			"target":34962
		},
		{
			"buffer":0,
			"byteLength":21816,
			"byteOffset":253656,
			"target":34963
		},
		{
			"buffer":0,
			"byteLength":1216,
			"byteOffset":275472
		}
	],
	"samplers":[
		{
			"magFilter":9729,
			"minFilter":9987
		}
	],
	"buffers":[
		{
			"byteLength":276688,
			"uri":"CryptRisen.bin"
		}
	]
}
