{
	"asset":{
		"generator":"Khronos glTF Blender I/O v5.0.21",
		"version":"2.0"
	},
	"extensionsUsed":[
		"KHR_materials_emissive_strength"
	],
	"scene":0,
	"scenes":[
		{
			"name":"Scene",
			"nodes":[
				20
			]
		}
	],
	"nodes":[
		{
			"name":"Head",
			"translation":[
				0,
				0.22679996490478516,
				0
			]
		},
		{
			"name":"Hand.L",
			"rotation":[
				0,
				-1.7763568394002505e-15,
				-2.6469782757140506e-23,
				1
			],
			"translation":[
				1.4901161193847656e-08,
				0.2519998550415039,
				0
			]
		},
		{
			"children":[
				1
			],
			"name":"Forearm.L",
			"rotation":[
				-1.1832913578315177e-30,
				-1.5893252935939017e-08,
				-2.6469779601696886e-23,
				1
			],
			"translation":[
				1.4901161193847656e-08,
				0.3095998764038086,
				-4.440892098500626e-16
			]
		},
		{
			"children":[
				2
			],
			"name":"UpperArm.L",
			"rotation":[
				-0.5,
				-0.5,
				0.5,
				0.5
			],
			"translation":[
				0,
				0.12780001759529114,
				1.1920928955078125e-07
			]
		},
		{
			"children":[
				3
			],
			"name":"Shoulder.L",
			"rotation":[
				-0.5,
				-0.5,
				-0.5,
				0.5
			],
			"scale":[
				1,
				0.9999999403953552,
				1
			],
			"translation":[
				0.06300000101327896,
				0.20159995555877686,
				0
			]
		},
		{
			"name":"Hand.R",
			"rotation":[
				0,
				1.7763568394002505e-15,
				2.6469782757140506e-23,
				1
			],
			"translation":[
				-1.4901161193847656e-08,
				0.2519998550415039,
				0
			]
		},
		{
			"children":[
				5
			],
			"name":"Forearm.R",
			"rotation":[
				-1.1832913578315177e-30,
				1.5893252935939017e-08,
				2.6469779601696886e-23,
				1
			],
			"translation":[
				-1.4901161193847656e-08,
				0.3095998764038086,
				-4.440892098500626e-16
			]
		},
		{
			"children":[
				6
			],
			"name":"UpperArm.R",
			"rotation":[
				-0.5,
				0.5,
				-0.5,
				0.5
			],
			"translation":[
				0,
				0.12780001759529114,
				1.1920928955078125e-07
			]
		},
		{
			"children":[
				7
			],
			"name":"Shoulder.R",
			"rotation":[
				-0.5,
				0.5,
				0.5,
				0.5
			],
			"scale":[
				1,
				0.9999999403953552,
				1
			],
			"translation":[
				-0.06300000101327896,
				0.20159995555877686,
				0
			]
		},
		{
			"children":[
				0,
				4,
				8
			],
			"name":"Chest",
			"scale":[
				1,
				0.9999999403953552,
				1
			],
			"translation":[
				0,
				0.1979999542236328,
				0
			]
		},
		{
			"children":[
				9
			],
			"name":"Spine",
			"translation":[
				0,
				0.11160004138946533,
				0
			]
		},
		{
			"name":"Foot.L",
			"rotation":[
				-0.5847102999687195,
				0,
				0,
				0.8112422227859497
			],
			"scale":[
				1,
				0.9999999403953552,
				1
			],
			"translation":[
				0,
				0.41040000319480896,
				0
			]
		},
		{
			"children":[
				11
			],
			"name":"Shin.L",
			"rotation":[
				0,
				4.371138828673793e-08,
				0,
				1
			],
			"translation":[
				0,
				0.44999998807907104,
				0
			]
		},
		{
			"children":[
				12
			],
			"name":"Thigh.L",
			"rotation":[
				1,
				0,
				-4.371138828673793e-08,
				0
			],
			"translation":[
				0.10080000013113022,
				0,
				0
			]
		},
		{
			"name":"Foot.R",
			"rotation":[
				-0.5847102999687195,
				0,
				0,
				0.8112422227859497
			],
			"scale":[
				1,
				0.9999999403953552,
				1
			],
			"translation":[
				0,
				0.41040000319480896,
				0
			]
		},
		{
			"children":[
				14
			],
			"name":"Shin.R",
			"rotation":[
				0,
				4.371138828673793e-08,
				0,
				1
			],
			"translation":[
				0,
				0.44999998807907104,
				0
			]
		},
		{
			"children":[
				15
			],
			"name":"Thigh.R",
			"rotation":[
				1,
				0,
				-4.371138828673793e-08,
				0
			],
			"translation":[
				-0.10080000013113022,
				0,
				0
			]
		},
		{
			"children":[
				10,
				13,
				16
			],
			"name":"Hips",
			"translation":[
				0,
				0.9503999948501587,
				0
			]
		},
		{
			"children":[
				17
			],
			"name":"Root"
		},
		{
			"mesh":0,
			"name":"ManAtArms",
			"skin":0
		},
		{
			"children":[
				19,
				18
			],
			"name":"ManAtArms_Rig"
		}
	],
	"materials":[
		{
			"doubleSided":true,
			"emissiveFactor":[
				1,
				1,
				1
			],
			"emissiveTexture":{
				"index":0
			},
			"extensions":{
				"KHR_materials_emissive_strength":{
					"emissiveStrength":9
				}
			},
			"name":"ManAtArms",
			"pbrMetallicRoughness":{
				"baseColorTexture":{
					"index":1
				},
				"metallicRoughnessTexture":{
					"index":2
				}
			}
		}
	],
	"meshes":[
		{
			"name":"ManAtArms",
			"primitives":[
				{
					"attributes":{
						"POSITION":0,
						"NORMAL":1,
						"TEXCOORD_0":2,
						"JOINTS_0":3,
						"WEIGHTS_0":4
					},
					"indices":5,
					"material":0
				}
			]
		}
	],
	"textures":[
		{
			"sampler":0,
			"source":0
		},
		{
			"sampler":0,
			"source":1
		},
		{
			"sampler":0,
			"source":2
		}
	],
	"images":[
		{
			"mimeType":"image/png",
			"name":"ManAtArms_Emission",
			"uri":"ManAtArms_Emission.png"
		},
		{
			"mimeType":"image/png",
			"name":"ManAtArms_BaseMap",
			"uri":"ManAtArms_BaseMap.png"
		},
		{
			"mimeType":"image/png",
			"name":"ManAtArms_ORM",
			"uri":"ManAtArms_ORM.png"
		}
	],
	"skins":[
		{
			"inverseBindMatrices":6,
			"joints":[
				18,
				17,
				10,
				9,
				0,
				4,
				3,
				2,
				1,
				8,
				7,
				6,
				5,
				13,
				12,
				11,
				16,
				15,
				14
			],
			"name":"ManAtArms_Rig"
		}
	],
	"accessors":[
		{
			"bufferView":0,
			"componentType":5126,
			"count":4273,
			"max":[
				0.3805961012840271,
				1.7847000360488892,
				0.19366323947906494
			],
			"min":[
				-0.2619653344154358,
				0,
				-0.21766090393066406
			],
			"type":"VEC3"
		},
		{
			"bufferView":1,
			"componentType":5126,
			"count":4273,
			"type":"VEC3"
		},
		{
			"bufferView":2,
			"componentType":5126,
			"count":4273,
			"type":"VEC2"
		},
		{
			"bufferView":3,
			"componentType":5121,
			"count":4273,
			"type":"VEC4"
		},
		{
			"bufferView":4,
			"componentType":5126,
			"count":4273,
			"type":"VEC4"
		},
		{
			"bufferView":5,
			"componentType":5123,
			"count":10548,
			"type":"SCALAR"
		},
		{
			"bufferView":6,
			"componentType":5126,
			"count":19,
			"type":"MAT4"
		}
	],
	"bufferViews":[
		{
			"buffer":0,
			"byteLength":51276,
			"byteOffset":0,
			"target":34962
		},
		{
			"buffer":0,
			"byteLength":51276,
			"byteOffset":51276,
			"target":34962
		},
		{
			"buffer":0,
			"byteLength":34184,
			"byteOffset":102552,
			"target":34962
		},
		{
			"buffer":0,
			"byteLength":17092,
			"byteOffset":136736,
			"target":34962
		},
		{
			"buffer":0,
			"byteLength":68368,
			"byteOffset":153828,
			"target":34962
		},
		{
			"buffer":0,
			"byteLength":21096,
			"byteOffset":222196,
			"target":34963
		},
		{
			"buffer":0,
			"byteLength":1216,
			"byteOffset":243292
		}
	],
	"samplers":[
		{
			"magFilter":9729,
			"minFilter":9987
		}
	],
	"buffers":[
		{
			"byteLength":244508,
			"uri":"ManAtArms.bin"
		}
	]
}
