{
	"asset":{
		"generator":"Khronos glTF Blender I/O v5.0.21",
		"version":"2.0"
	},
	"extensionsUsed":[
		"KHR_materials_emissive_strength"
	],
	"scene":0,
	"scenes":[
		{
			"name":"Scene",
			"nodes":[
				20
			]
		}
	],
	"nodes":[
		{
			"name":"Head",
			"translation":[
				0,
				0.3799999952316284,
				0
			]
		},
		{
			"name":"Hand.L",
			"rotation":[
				-0.2508413791656494,
				6.878253968180346e-15,
				1.4893401487396044e-15,
				0.96802818775177
			],
			"translation":[
				2.9802322387695312e-08,
				0.25999999046325684,
				-3.9968028886505635e-15
			]
		},
		{
			"children":[
				1
			],
			"name":"Forearm.L",
			"rotation":[
				-7.450580596923828e-09,
				6.449408829212189e-08,
				-3.7036367387928513e-16,
				1
			],
			"translation":[
				2.980232594040899e-08,
				0.3799999952316284,
				3.1086244689504383e-15
			]
		},
		{
			"children":[
				2
			],
			"name":"UpperArm.L",
			"rotation":[
				-0.45668524503707886,
				-0.49812036752700806,
				0.49812036752700806,
				0.5433147549629211
			],
			"scale":[
				0.9999999403953552,
				1,
				0.9999999403953552
			],
			"translation":[
				-0.005028139799833298,
				0.25599050521850586,
				-0.05782370641827583
			]
		},
		{
			"children":[
				3
			],
			"name":"Shoulder.L",
			"rotation":[
				-0.5433148145675659,
				-0.4981203079223633,
				-0.4981202483177185,
				0.45668524503707886
			],
			"scale":[
				0.9999998807907104,
				0.9999998211860657,
				0.9999999403953552
			],
			"translation":[
				0.11999999731779099,
				0.3200000524520874,
				0
			]
		},
		{
			"name":"Hand.R",
			"rotation":[
				-0.2508413791656494,
				-6.878253968180346e-15,
				-1.4893401487396044e-15,
				0.96802818775177
			],
			"translation":[
				-2.9802322387695312e-08,
				0.25999999046325684,
				-3.9968028886505635e-15
			]
		},
		{
			"children":[
				5
			],
			"name":"Forearm.R",
			"rotation":[
				-7.450580596923828e-09,
				-6.449408829212189e-08,
				3.7036367387928513e-16,
				1
			],
			"translation":[
				-2.980232594040899e-08,
				0.3799999952316284,
				3.1086244689504383e-15
			]
		},
		{
			"children":[
				6
			],
			"name":"UpperArm.R",
			"rotation":[
				-0.45668524503707886,
				0.49812036752700806,
				-0.49812036752700806,
				0.5433147549629211
			],
			"scale":[
				0.9999999403953552,
				1,
				0.9999999403953552
			],
			"translation":[
				0.005028139799833298,
				0.25599050521850586,
				-0.05782370641827583
			]
		},
		{
			"children":[
				7
			],
			"name":"Shoulder.R",
			"rotation":[
				-0.5433148145675659,
				0.4981203079223633,
				0.4981202483177185,
				0.45668524503707886
			],
			"scale":[
				0.9999998807907104,
				0.9999998211860657,
				0.9999999403953552
			],
			"translation":[
				-0.11999999731779099,
				0.3200000524520874,
				0
			]
		},
		{
			"children":[
				0,
				4,
				8
			],
			"name":"Chest",
			"translation":[
				0,
				0.19999992847442627,
				0
			]
		},
		{
			"children":[
				9
			],
			"name":"Spine",
			"translation":[
				0,
				0.20000004768371582,
				0
			]
		},
		{
			"name":"Foot.L",
			"rotation":[
				-0.569624662399292,
				-0.01512168813496828,
				0.002742102835327387,
				0.8217612504959106
			],
			"scale":[
				1.0000001192092896,
				1,
				1
			],
			"translation":[
				-1.4901166522918174e-08,
				0.4601087272167206,
				-1.9624442348931126e-10
			]
		},
		{
			"children":[
				11
			],
			"name":"Shin.L",
			"rotation":[
				0.00011810524301836267,
				0.010867047123610973,
				-0.010867003351449966,
				0.9998818635940552
			],
			"translation":[
				0,
				0.41999995708465576,
				0
			]
		},
		{
			"children":[
				12
			],
			"name":"Thigh.L",
			"rotation":[
				1,
				0,
				-4.371138828673793e-08,
				0
			],
			"translation":[
				0.1599999964237213,
				0.019999980926513672,
				0
			]
		},
		{
			"name":"Foot.R",
			"rotation":[
				-0.569624662399292,
				0.01512168813496828,
				-0.002742102835327387,
				0.8217612504959106
			],
			"scale":[
				1.0000001192092896,
				1,
				1
			],
			"translation":[
				1.4901156752955558e-08,
				0.4601087272167206,
				-1.9665728767659374e-10
			]
		},
		{
			"children":[
				14
			],
			"name":"Shin.R",
			"rotation":[
				0.0001181061816168949,
				-0.01086695957928896,
				0.010867003351449966,
				0.9998818635940552
			],
			"translation":[
				0,
				0.41999995708465576,
				0
			]
		},
		{
			"children":[
				15
			],
			"name":"Thigh.R",
			"rotation":[
				1,
				0,
				-4.371138828673793e-08,
				0
			],
			"translation":[
				-0.1599999964237213,
				0.019999980926513672,
				0
			]
		},
		{
			"children":[
				10,
				13,
				16
			],
			"name":"Hips",
			"translation":[
				0,
				1.0199999809265137,
				0
			]
		},
		{
			"children":[
				17
			],
			"name":"Root"
		},
		{
			"mesh":0,
			"name":"VaultWarden",
			"skin":0
		},
		{
			"children":[
				19,
				18
			],
			"name":"VaultWarden_Rig"
		}
	],
	"materials":[
		{
			"doubleSided":true,
			"emissiveFactor":[
				1,
				1,
				1
			],
			"emissiveTexture":{
				"index":0
			},
			"extensions":{
				"KHR_materials_emissive_strength":{
					"emissiveStrength":4
				}
			},
			"name":"VaultWarden",
			"pbrMetallicRoughness":{
				"baseColorTexture":{
					"index":1
				},
				"metallicRoughnessTexture":{
					"index":2
				}
			}
		}
	],
	"meshes":[
		{
			"name":"VaultWarden",
			"primitives":[
				{
					"attributes":{
						"POSITION":0,
						"NORMAL":1,
						"TEXCOORD_0":2,
						"JOINTS_0":3,
						"WEIGHTS_0":4
					},
					"indices":5,
					"material":0
				}
			]
		}
	],
	"textures":[
		{
			"sampler":0,
			"source":0
		},
		{
			"sampler":0,
			"source":1
		},
		{
			"sampler":0,
			"source":2
		}
	],
	"images":[
		{
			"mimeType":"image/png",
			"name":"VaultWarden_Emission",
			"uri":"VaultWarden_Emission.png"
		},
		{
			"mimeType":"image/png",
			"name":"VaultWarden_BaseMap",
			"uri":"VaultWarden_BaseMap.png"
		},
		{
			"mimeType":"image/png",
			"name":"VaultWarden_ORM",
			"uri":"VaultWarden_ORM.png"
		}
	],
	"skins":[
		{
			"inverseBindMatrices":6,
			"joints":[
				18,
				17,
				10,
				9,
				0,
				4,
				3,
				2,
				1,
				8,
				7,
				6,
				5,
				13,
				12,
				11,
				16,
				15,
				14
			],
			"name":"VaultWarden_Rig"
		}
	],
	"accessors":[
		{
			"bufferView":0,
			"componentType":5126,
			"count":5172,
			"max":[
				0.503618597984314,
				2.252657175064087,
				0.28999999165534973
			],
			"min":[
				-0.503618597984314,
				0,
				-0.33000001311302185
			],
			"type":"VEC3"
		},
		{
			"bufferView":1,
			"componentType":5126,
			"count":5172,
			"type":"VEC3"
		},
		{
			"bufferView":2,
			"componentType":5126,
			"count":5172,
			"type":"VEC2"
		},
		{
			"bufferView":3,
			"componentType":5121,
			"count":5172,
			"type":"VEC4"
		},
		{
			"bufferView":4,
			"componentType":5126,
			"count":5172,
			"type":"VEC4"
		},
		{
			"bufferView":5,
			"componentType":5123,
			"count":12960,
			"type":"SCALAR"
		},
		{
			"bufferView":6,
			"componentType":5126,
			"count":19,
			"type":"MAT4"
		}
	],
	"bufferViews":[
		{
			"buffer":0,
			"byteLength":62064,
			"byteOffset":0,
			"target":34962
		},
		{
			"buffer":0,
			"byteLength":62064,
			"byteOffset":62064,
			"target":34962
		},
		{
			"buffer":0,
			"byteLength":41376,
			"byteOffset":124128,
			"target":34962
		},
		{
			"buffer":0,
			"byteLength":20688,
			"byteOffset":165504,
			"target":34962
		},
		{
			"buffer":0,
			"byteLength":82752,
			"byteOffset":186192,
			"target":34962
		},
		{
			"buffer":0,
			"byteLength":25920,
			"byteOffset":268944,
			"target":34963
		},
		{
			"buffer":0,
			"byteLength":1216,
			"byteOffset":294864
		}
	],
	"samplers":[
		{
			"magFilter":9729,
			"minFilter":9987
		}
	],
	"buffers":[
		{
			"byteLength":296080,
			"uri":"VaultWarden.bin"
		}
	]
}
